<?xml version="1.0" encoding="UTF-8" standalone="no"?>
<svg
   xmlns:dc="http://purl.org/dc/elements/1.1/"
   xmlns:cc="http://creativecommons.org/ns#"
   xmlns:rdf="http://www.w3.org/1999/02/22-rdf-syntax-ns#"
   xmlns:svg="http://www.w3.org/2000/svg"
   xmlns="http://www.w3.org/2000/svg"
   xmlns:sodipodi="http://sodipodi.sourceforge.net/DTD/sodipodi-0.dtd"
   xmlns:inkscape="http://www.inkscape.org/namespaces/inkscape"
   version="1.1"
   id="Layer_1"
   x="0px"
   y="0px"
   viewBox="0 0 512.011 512.011"
   style="enable-background:new 0 0 512.011 512.011;"
   xml:space="preserve"
   sodipodi:docname="down-arrow.svg"
   inkscape:version="1.0.1 (3bc2e813f5, 2020-09-07)"><metadata
   id="metadata43"><rdf:RDF><cc:Work
       rdf:about=""><dc:format>image/svg+xml</dc:format><dc:type
         rdf:resource="http://purl.org/dc/dcmitype/StillImage" /></cc:Work></rdf:RDF></metadata><defs
   id="defs41" /><sodipodi:namedview
   pagecolor="#ffffff"
   bordercolor="#666666"
   borderopacity="1"
   objecttolerance="10"
   gridtolerance="10"
   guidetolerance="10"
   inkscape:pageopacity="0"
   inkscape:pageshadow="2"
   inkscape:window-width="1920"
   inkscape:window-height="1017"
   id="namedview39"
   showgrid="false"
   inkscape:zoom="0.41503016"
   inkscape:cx="-1290.704"
   inkscape:cy="402.86238"
   inkscape:window-x="-8"
   inkscape:window-y="278"
   inkscape:window-maximized="1"
   inkscape:current-layer="Layer_1" />
<g
   id="g6">
	<g
   id="g4">
		<path
   d="M505.755,123.592c-8.341-8.341-21.824-8.341-30.165,0L256.005,343.176L36.421,123.592c-8.341-8.341-21.824-8.341-30.165,0    s-8.341,21.824,0,30.165l234.667,234.667c4.16,4.16,9.621,6.251,15.083,6.251c5.462,0,10.923-2.091,15.083-6.251l234.667-234.667    C514.096,145.416,514.096,131.933,505.755,123.592z"
   id="path2" />
	</g>
</g>
<g
   id="g8">
</g>
<g
   id="g10">
</g>
<g
   id="g12">
</g>
<g
   id="g14">
</g>
<g
   id="g16">
</g>
<g
   id="g18">
</g>
<g
   id="g20">
</g>
<g
   id="g22">
</g>
<g
   id="g24">
</g>
<g
   id="g26">
</g>
<g
   id="g28">
</g>
<g
   id="g30">
</g>
<g
   id="g32">
</g>
<g
   id="g34">
</g>
<g
   id="g36">
</g>
<path
   style="fill:#ffffff;stroke-width:0.602366"
   d="m 251.63588,393.93092 c -1.24373,-0.31251 -3.54778,-1.23149 -5.12011,-2.04217 C 242.55863,389.84847 4.3844654,151.56475 2.3189852,147.57964 1.1231931,145.27249 0.913279,143.97233 0.9088051,138.84533 c -0.004519,-5.17836 0.2018854,-6.44631 1.470852,-9.03549 3.1643455,-6.45648 9.4551259,-10.9178 16.9876679,-12.04737 3.229143,-0.48424 9.214672,0.86029 12.508801,2.80987 1.18665,0.70229 52.101205,51.181 113.143454,112.17491 L 256.00549,343.64526 366.9914,232.74725 c 61.04225,-60.99391 111.95681,-111.47262 113.14346,-112.17491 7.96105,-4.71161 18.43736,-3.38701 24.96006,3.15589 4.80173,4.81661 6.01384,7.86746 6.00604,15.1171 -0.006,5.4258 -0.17585,6.35249 -1.71293,9.33667 -1.4039,2.72564 -22.86862,24.48046 -121.06906,122.7053 C 275.77814,383.45612 268.73146,390.38415 265.0212,392.109 c -4.34756,2.02112 -9.69554,2.74905 -13.38532,1.82192 z"
   id="path45" /></svg>
